<?xml version="1.0" encoding="UTF-8"?>
<svg width="31px" height="39px" viewBox="0 0 31 39" version="1.1" xmlns="http://www.w3.org/2000/svg" xmlns:xlink="http://www.w3.org/1999/xlink">
    <!-- Generator: Sketch 46.2 (44496) - http://www.bohemiancoding.com/sketch -->
    <title>Page 1</title>
    <desc>Created with Sketch.</desc>
    <defs>
        <polygon id="path-1" points="31 39 31 6.15488634e-15 0 0 0 39 31 39"></polygon>
    </defs>
    <g id="Page-1" stroke="none" stroke-width="1" fill="none" fill-rule="evenodd">
        <g id="ðŸ -test-copy" transform="translate(-762.000000, -685.000000)">
            <g id="Page-1" transform="translate(762.000000, 685.000000)">
                <mask id="mask-2" fill="white">
                    <use xlink:href="#path-1"></use>
                </mask>
                <g id="Clip-2"></g>
                <path d="M7.83282761,28.1538796 C7.09901378,28.1911272 6.53525698,28.8035471 6.57334267,29.5207799 C6.61142837,30.2384459 7.23718512,30.789797 7.97099895,30.7525494 L17.3817074,30.7525494 C18.1159641,30.7625109 18.7186923,30.1890711 18.728878,29.4714052 C18.7395066,28.7541723 18.1531641,28.1638412 17.4193502,28.1538796 C17.4069502,28.1538796 17.3945502,28.1538796 17.3817074,28.1538796 L7.97099895,28.1538796 C7.92494184,28.1517141 7.87888472,28.1517141 7.83282761,28.1538796 L7.83282761,28.1538796 Z M7.83282761,23.8227634 C7.09901378,23.860011 6.53525698,24.4724308 6.57334267,25.1896637 C6.61142837,25.9073296 7.23718512,26.4586807 7.97099895,26.4214331 L23.0285753,26.4214331 C23.7623892,26.4313947 24.3651173,25.8579549 24.3753031,25.140289 C24.3859316,24.4230561 23.800032,23.832725 23.0657753,23.8227634 C23.0533753,23.8227634 23.0409753,23.8227634 23.0285753,23.8227634 L7.97099895,23.8227634 C7.92494184,23.8205979 7.87888472,23.8205979 7.83282761,23.8227634 L7.83282761,23.8227634 Z M7.83282761,19.4916472 C7.09901378,19.5288948 6.53525698,20.1413146 6.57334267,20.8585475 C6.61142837,21.5762134 7.23718512,22.1275645 7.97099895,22.0903169 L23.0285753,22.0903169 C23.7623892,22.1002785 24.3651173,21.5268387 24.3753031,20.8091727 C24.3859316,20.0919399 23.800032,19.5016088 23.0657753,19.4916472 C23.0533753,19.4916472 23.0409753,19.4916472 23.0285753,19.4916472 L7.97099895,19.4916472 C7.92494184,19.4894816 7.87888472,19.4894816 7.83282761,19.4916472 L7.83282761,19.4916472 Z M7.83282761,15.160531 C7.09901378,15.1977786 6.53525698,15.8101984 6.57334267,16.5274312 C6.61142837,17.2450972 7.23718512,17.7964483 7.97099895,17.7592007 L17.3817074,17.7592007 C18.1159641,17.7691623 18.7186923,17.1957225 18.728878,16.4780565 C18.7395066,15.7608237 18.1531641,15.1704925 17.4193502,15.160531 C17.4069502,15.160531 17.3945502,15.160531 17.3817074,15.160531 L7.97099895,15.160531 C7.92494184,15.1583654 7.87888472,15.1583654 7.83282761,15.160531 L7.83282761,15.160531 Z M23.4714322,4.00790668 L26.9035729,7.36452175 L23.4714322,7.36452175 L23.4714322,4.00790668 Z M1.18997459,0.00162416858 C0.511075008,0.0713551398 -0.00352467229,0.633100914 1.81826512e-05,1.30095904 L1.81826512e-05,37.6823353 C1.81826512e-05,38.4000013 0.5943321,38.9816702 1.32814593,38.9816702 L25.2428597,38.9816702 C25.9766735,38.9916318 26.5794017,38.418192 26.5895874,37.700526 C26.600216,36.9832932 26.0143163,36.392962 25.2800596,36.3830005 C25.2676596,36.3830005 25.2552597,36.3830005 25.2428597,36.3830005 L2.65671653,36.3830005 L2.65671653,2.6002939 L20.8138481,2.6002939 L20.8138481,8.66385662 C20.8138481,9.38152258 21.4086049,9.96319149 22.1428616,9.96319149 L28.3428577,9.96319149 L28.3428577,37.6823353 C28.3322292,38.4000013 28.9185717,38.9898993 29.6528284,38.9998609 C30.3861993,39.0102556 30.9893704,38.4368158 30.9999989,37.7191498 L30.9999989,37.6823353 L30.9999989,8.230745 C31.0004418,7.88598815 30.8613847,7.55465775 30.6124992,7.3103828 L23.5267893,0.380596838 C23.2765752,0.137188106 22.9382325,0.000757945339 22.5857185,0.00162416858 L1.32814593,0.00162416858 C1.28208882,-0.000541389528 1.2360317,-0.000541389528 1.18997459,0.00162416858 L1.18997459,0.00162416858 Z" id="Fill-1" fill="#F36819" mask="url(#mask-2)"></path>
            </g>
        </g>
    </g>
</svg>